<svg width="49" height="49" viewBox="0 0 49 49" fill="none" xmlns="http://www.w3.org/2000/svg">
<g clip-path="url(#clip0_634_3229)">
<path d="M48.5 24.0674C48.5 10.8127 37.7547 0.0673828 24.5 0.0673828C11.2453 0.0673828 0.5 10.8127 0.5 24.0674C0.5 35.3224 8.24912 44.7669 18.7026 47.3608V31.4018H13.7538V24.0674H18.7026V20.9071C18.7026 12.7384 22.3995 8.95218 30.4194 8.95218C31.94 8.95218 34.5637 9.25074 35.637 9.54834V16.1963C35.0706 16.1368 34.0866 16.1071 32.8645 16.1071C28.9294 16.1071 27.4088 17.5979 27.4088 21.4735V24.0674H35.2482L33.9013 31.4018H27.4088V47.8917C39.2926 46.4565 48.501 36.3381 48.501 24.0674H48.5Z" fill="#0866FF"/>
<path d="M33.9005 31.4017L35.2473 24.0673H27.408V21.4734C27.408 17.5979 28.9286 16.107 32.8636 16.107C34.0857 16.107 35.0697 16.1368 35.6361 16.1963V9.54831C34.5628 9.24975 31.9392 8.95215 30.4185 8.95215C22.3987 8.95215 18.7017 12.7384 18.7017 20.907V24.0673H13.7529V31.4017H18.7017V47.3608C20.5584 47.8216 22.5005 48.0673 24.4992 48.0673C25.4832 48.0673 26.4537 48.0069 27.407 47.8917V31.4017H33.8995H33.9005Z" fill="white"/>
</g>
<defs>
<clipPath id="clip0_634_3229">
<rect width="48" height="48" fill="white" transform="translate(0.5 0.0673828)"/>
</clipPath>
</defs>
</svg>
