<svg width="49" height="55" viewBox="0 0 49 55" fill="none" xmlns="http://www.w3.org/2000/svg">
<path d="M24.5197 0C11.2545 0 0.5 12.1093 0.5 27.0455C0.5 38.5092 6.82618 48.3035 15.7619 52.2434C15.5444 50.1065 15.3665 46.8121 15.841 44.4748C16.2759 42.3601 18.6482 31.03 18.6482 31.03C18.6482 31.03 17.9365 29.405 17.9365 27.0232C17.9365 23.2614 19.8739 20.4566 22.2858 20.4566C24.3418 20.4566 25.3303 22.1929 25.3303 24.263C25.3303 26.578 24.0255 30.0505 23.3336 33.2782C22.7602 35.9716 24.5395 38.1753 26.892 38.1753C31.1622 38.1753 34.4439 33.1001 34.4439 25.799C34.4439 19.3214 30.3121 14.8027 24.4011 14.8027C17.5609 14.8027 13.5477 20.5679 13.5477 26.5335C13.5477 28.8485 14.3385 31.3416 15.327 32.6994C15.5247 32.9666 15.5444 33.2114 15.4851 33.4785C15.3072 34.3244 14.8921 36.172 14.813 36.5504C14.7141 37.0401 14.4571 37.1514 14.0024 36.9065C10.9975 35.3261 9.11942 30.4067 9.11942 26.4222C9.11942 17.8968 14.6153 10.0614 24.9942 10.0614C33.3171 10.0614 39.8014 16.7393 39.8014 25.6877C39.8014 35.0145 34.5823 42.516 27.3467 42.516C24.9151 42.516 22.6219 41.0913 21.8509 39.3996C21.8509 39.3996 20.6449 44.5639 20.3484 45.8326C19.8146 48.1922 18.3517 51.1305 17.3632 52.9335C19.6169 53.7126 21.9892 54.1355 24.4802 54.1355C37.7454 54.1355 48.4999 42.0262 48.4999 27.09C48.5394 12.1093 37.7849 0 24.5197 0Z" fill="#E60019"/>
</svg>
