<svg width="48" height="49" viewBox="0 0 48 49" fill="none" xmlns="http://www.w3.org/2000/svg">
<g clip-path="url(#clip0_634_3225)">
<path d="M44.4567 0.0673828H3.54333C2.60358 0.0673828 1.70232 0.440698 1.03782 1.1052C0.373315 1.76971 0 2.67097 0 3.61072V44.524C0 45.4638 0.373315 46.3651 1.03782 47.0296C1.70232 47.6941 2.60358 48.0674 3.54333 48.0674H44.4567C45.3964 48.0674 46.2977 47.6941 46.9622 47.0296C47.6267 46.3651 48 45.4638 48 44.524V3.61072C48 2.67097 47.6267 1.76971 46.9622 1.1052C46.2977 0.440698 45.3964 0.0673828 44.4567 0.0673828ZM14.3067 40.9574H7.09V18.034H14.3067V40.9574ZM10.6933 14.8574C9.87473 14.8528 9.07583 14.6058 8.39747 14.1476C7.71911 13.6893 7.19168 13.0404 6.88175 12.2828C6.57183 11.5251 6.4933 10.6926 6.65606 9.89029C6.81883 9.08802 7.2156 8.35194 7.79631 7.77495C8.37702 7.19796 9.11563 6.80592 9.91893 6.6483C10.7222 6.49069 11.5542 6.57457 12.3099 6.88935C13.0656 7.20414 13.7111 7.73572 14.1649 8.41701C14.6188 9.0983 14.8606 9.89877 14.86 10.7174C14.8677 11.2655 14.765 11.8095 14.558 12.317C14.351 12.8245 14.044 13.2852 13.6551 13.6715C13.2663 14.0578 12.8037 14.3619 12.2948 14.5657C11.786 14.7694 11.2413 14.8686 10.6933 14.8574ZM40.9067 40.9774H33.6933V28.4541C33.6933 24.7607 32.1233 23.6207 30.0967 23.6207C27.9567 23.6207 25.8567 25.2341 25.8567 28.5474V40.9774H18.64V18.0507H25.58V21.2274H25.6733C26.37 19.8174 28.81 17.4074 32.5333 17.4074C36.56 17.4074 40.91 19.7974 40.91 26.7974L40.9067 40.9774Z" fill="#0A66C2"/>
</g>
<defs>
<clipPath id="clip0_634_3225">
<rect width="48" height="48" fill="white" transform="translate(0 0.0673828)"/>
</clipPath>
</defs>
</svg>
